<?xml version="1.0" encoding="utf-8"?>
<!-- Generator: Adobe Illustrator 27.3.1, SVG Export Plug-In . SVG Version: 6.00 Build 0)  -->
<svg version="1.1" id="Capa_1" xmlns="http://www.w3.org/2000/svg" xmlns:xlink="http://www.w3.org/1999/xlink" x="0px" y="0px"
	 viewBox="0 0 52.6 82.1" style="enable-background:new 0 0 52.6 82.1;" xml:space="preserve">
<style type="text/css">
	.st0{fill:none;stroke:#000000;stroke-miterlimit:10;}
</style>
<polygon points="7.4,48.3 8.2,48.3 8.2,42.5 10.4,42.5 10.4,41.8 5.2,41.8 5.2,42.5 7.4,42.5 "/>
<polygon points="12,45.2 15.5,45.2 15.5,48.3 16.3,48.3 16.3,41.8 15.5,41.8 15.5,44.6 12,44.6 12,41.8 11.2,41.8 11.2,48.3 
	12,48.3 "/>
<rect x="17.6" y="41.8" width="0.8" height="6.5"/>
<path d="M20.4,43L20.4,43c0,0,0.3,0.5,0.5,0.8l3,4.6h0.8v-6.5H24v5.4l0,0c0,0-0.3-0.5-0.5-0.8l-3-4.6h-0.9v6.5h0.8V43z"/>
<polygon points="31.1,41.8 30,41.8 26.8,45 26.8,41.8 26,41.8 26,48.3 26.8,48.3 26.8,46 27.9,45 30.3,48.3 31.3,48.3 28.4,44.4 "/>
<rect x="31.9" y="41.8" width="0.8" height="6.5"/>
<path d="M38.3,47.2L38.3,47.2c0,0-0.3-0.5-0.5-0.8l-3-4.6H34v6.5h0.8V43l0,0c0,0,0.3,0.5,0.5,0.8l3,4.6h0.8v-6.5h-0.8V47.2z"/>
<path d="M40.1,45.1c0,2,1.2,3.4,3.1,3.4c0.9,0,1.6-0.3,2-1l0,0l0.2,0.9H46v-3.5h-2.8v0.7h2v0.2c0,1.1-0.6,2-2,2
	c-1.3,0-2.3-1.1-2.3-2.7c0-1.5,0.7-2.7,2.3-2.7c1,0,1.6,0.5,1.8,1.4h0.9c-0.2-1.3-1.1-2.1-2.7-2.1C41.2,41.7,40.1,43.2,40.1,45.1z"
	/>
<path d="M5,10C4.2,8.7,4.5,7.4,5.9,6.5C7,5.9,8.3,5.9,8.9,7c0.6,1,0.2,2-1.2,2.9l-0.6,0.3l0.5,0.9l0.6-0.4c1.6-1,2.8-0.9,3.6,0.3
	c0.8,1.3,0.3,2.5-1,3.3c-1.5,0.9-3,0.7-4-0.8l-1.1,0.7c1.3,2.1,3.7,2.3,5.7,1c1.9-1.1,2.8-3.1,1.7-4.9C12.4,9.1,11.3,8.6,9.8,9l0,0
	c0.7-0.8,1-1.9,0.4-2.9c-1-1.6-2.9-1.7-4.7-0.7C3.4,6.6,2.9,8.6,4,10.5L5,10z"/>
<path d="M14.4,5.3c-0.4-1.5,0.3-2.7,1.8-3.1c1.3-0.3,2.5,0.1,2.8,1.3c0.3,1.1-0.4,2-2,2.5l-0.7,0.2l0.3,1L17.3,7
	c1.8-0.4,3,0,3.3,1.4c0.4,1.5-0.5,2.5-2,2.9c-1.8,0.4-3.1-0.2-3.6-1.9l-1.3,0.3c0.7,2.4,2.8,3.3,5.2,2.7c2.2-0.5,3.5-2.1,3-4.2
	C21.6,6.8,20.7,6,19.1,6l0,0c0.9-0.6,1.5-1.5,1.2-2.7c-0.5-1.8-2.3-2.5-4.3-2c-2.3,0.6-3.4,2.3-2.9,4.4L14.4,5.3z"/>
<path d="M27.4,11.5c2.7,0.1,4.3-2.1,4.5-5.6c0.1-3.6-1.5-5.8-4-5.9s-4.3,2-4.5,5.6C23.2,9.1,24.7,11.4,27.4,11.5z M27.8,1.2
	c1.9,0.1,2.8,1.9,2.7,4.7c-0.1,2.8-1.1,4.5-3,4.5c-1.9-0.1-2.8-1.9-2.7-4.7C24.9,2.8,25.9,1.1,27.8,1.2z"/>
<path d="M35.6,6.9c0.5-1.2,1.9-1.6,2.8-1.3c0.8,0.3,1.1,1.1,0.7,2L36.9,13l1.2,0.5L40,8.7c0.5-1.2,1.7-1.7,2.7-1.3
	c0.8,0.3,1.2,1.1,0.8,2.1l-2.2,5.3l1.2,0.5l2.2-5.4c0.6-1.6,0-2.9-1.3-3.4c-0.9-0.4-2.1-0.3-2.9,0.4l0,0c0-1-0.5-1.8-1.5-2.2
	c-1-0.4-2-0.2-2.8,0.4l0,0L36.7,4l-1.2-0.5l-3.1,7.7l1.2,0.5L35.6,6.9z"/>
<rect x="41.5" y="11.5" transform="matrix(0.5988 -0.8009 0.8009 0.5988 9.1866 42.6455)" width="11.4" height="1.3"/>
<path d="M15.1,33c1.3,0,2.3-0.5,3-1.4l0,0c-0.1,1.6-0.3,2.9-1,3.6c-0.4,0.5-1,0.7-1.9,0.7c-1.5,0-2.3-0.9-2.4-2.1h-1.4
	c0.1,1.9,1.6,3.2,3.8,3.2c1,0,1.9-0.3,2.6-0.9c1.1-1,1.5-2.6,1.5-4.8c0-2.4-0.4-4-1.6-5c-0.6-0.5-1.5-0.8-2.5-0.8
	c-2.2,0-3.9,1.7-3.8,3.7C11.5,31.4,13.1,33,15.1,33z M15.3,26.7c1.5,0,2.7,1.1,2.7,2.6c0,1.6-1,2.6-2.7,2.6c-1.4,0-2.6-1.1-2.6-2.6
	C12.7,27.7,13.8,26.7,15.3,26.7z"/>
<path d="M24.6,31.7c-1.9,1.1-4,2.2-4.1,5.1h7.6v-1.3h-6c0.3-1.2,1.8-2.1,3-2.8c1.8-1,3.2-1.7,3.2-3.8c0-2-1.4-3.4-3.7-3.4
	c-1.1,0-2.1,0.3-2.8,1c-0.7,0.7-1,1.6-1,3h1.4c0-1.1,0.2-1.7,0.6-2.2c0.4-0.4,1-0.7,1.7-0.7c1.5,0,2.4,0.9,2.4,2.3
	C26.9,30.3,26,30.9,24.6,31.7z"/>
<polygon points="33.3,36.8 39.6,25.8 38.5,25.8 32.2,36.8 "/>
<path d="M32.3,31.9c1.5,0,2.6-1.2,2.6-3.2s-1.1-3.2-2.6-3.2s-2.6,1.2-2.6,3.2C29.8,30.7,30.8,31.9,32.3,31.9z M32.3,26.6
	c0.9,0,1.4,1,1.4,2.2c0,1.3-0.5,2.2-1.4,2.2c-0.9,0-1.4-1-1.4-2.2C31,27.5,31.5,26.6,32.3,26.6z"/>
<path d="M36.8,33.9c0,1.9,1.1,3.2,2.6,3.2s2.6-1.2,2.6-3.2s-1.1-3.2-2.6-3.2C38,30.7,36.8,31.9,36.8,33.9z M40.8,33.9
	c0,1.3-0.5,2.2-1.4,2.2s-1.4-1-1.4-2.2c0-1.3,0.5-2.2,1.4-2.2S40.8,32.6,40.8,33.9z"/>
<path d="M17.4,65.8L17.4,65.8c0.6-0.2,1.1-0.7,1.1-1.4c0-0.5-0.2-0.8-0.4-1.1c-0.4-0.4-0.9-0.6-1.6-0.6h-2.8v6.5h2.9
	c0.7,0,1.3-0.2,1.6-0.6c0.3-0.3,0.5-0.8,0.5-1.3C18.8,66.5,18.2,66,17.4,65.8z M14.5,63.5h2c0.7,0,1.2,0.4,1.2,1
	c0,0.7-0.5,1.1-1.3,1.1h-1.8v-2.1H14.5z M17.6,68.2c-0.2,0.2-0.6,0.3-1,0.3h-2.1v-2.3h2c0.8,0,1.4,0.4,1.4,1.2
	C17.9,67.8,17.8,68,17.6,68.2z"/>
<path d="M22.6,62.6c-2,0-3.2,1.5-3.2,3.4c0,2,1.2,3.4,3.2,3.4s3.2-1.5,3.2-3.4C25.8,64.1,24.6,62.6,22.6,62.6z M22.6,68.7
	c-1.5,0-2.4-1.2-2.4-2.7s0.8-2.7,2.4-2.7S25,64.5,25,66S24.2,68.7,22.6,68.7z"/>
<polygon points="27.6,62.7 26.8,62.7 26.8,69.3 31.1,69.3 31.1,68.5 27.6,68.5 "/>
<path d="M34.3,62.7h-2.4v6.5h2.3c2,0,3-1.3,3-3.2S36.2,62.7,34.3,62.7z M34.2,68.6h-1.5v-5.1h1.5c1.5,0,2.1,1,2.1,2.6
	S35.7,68.6,34.2,68.6z"/>
<g>
	<path class="st0" d="M26.3,80.9L26.3,80.9c14,0,25.4-11.4,25.4-25.4V40c0-14-11.4-25.4-25.4-25.4h0C12.3,14.6,0.9,26,0.9,40v15.5
		C0.9,69.5,12.3,80.9,26.3,80.9z"/>
	<line class="st0" x1="0.9" y1="55.2" x2="51.7" y2="55.2"/>
</g>
</svg>
